<?xml version="1.0" standalone="no"?>
<!DOCTYPE svg PUBLIC "-//W3C//DTD SVG 20010904//EN"
 "http://www.w3.org/TR/2001/REC-SVG-20010904/DTD/svg10.dtd">
<svg version="1.0" xmlns="http://www.w3.org/2000/svg"
 width="3500.000000pt" height="594.000000pt" viewBox="0 0 3500.000000 594.000000"
 preserveAspectRatio="xMidYMid meet">

<g transform="translate(0.000000,594.000000) scale(0.100000,-0.100000)"
fill="#000000" stroke="none">
<path d="M12230 5930 c-220 -20 -435 -75 -609 -156 -512 -239 -763 -714 -774
-1462 l-2 -162 -243 0 -242 0 2 -492 3 -493 243 -3 242 -2 0 -1475 0 -1475
565 0 565 0 0 1480 0 1480 380 0 380 0 -2 488 -3 487 -382 3 -382 2 4 68 c3
37 7 113 9 170 15 310 143 472 417 528 70 14 116 16 284 10 110 -3 210 -9 223
-12 l22 -6 0 494 0 495 -82 11 c-214 30 -437 38 -618 22z"/>
<path d="M27456 5688 c-260 -19 -567 -109 -738 -217 -82 -52 -159 -132 -187
-196 -80 -178 -152 -450 -153 -580 -2 -107 7 -130 65 -177 51 -40 53 -40 117
-35 134 12 361 94 640 230 145 71 174 90 238 152 41 38 84 88 97 110 25 43 81
230 140 464 29 120 34 150 25 176 -23 70 -73 85 -244 73z"/>
<path d="M19270 5564 c-868 -33 -1257 -82 -1540 -195 -270 -108 -531 -318
-657 -528 -83 -139 -161 -373 -183 -551 -30 -251 14 -573 125 -905 51 -151 79
-207 135 -268 l48 -52 143 1 c155 2 348 20 608 58 181 26 197 34 185 91 -3 16
-57 137 -120 267 -178 370 -208 480 -208 778 0 352 84 594 273 794 141 148
344 253 565 293 119 21 346 21 496 0 132 -19 159 -26 219 -56 61 -31 75 -70
68 -186 -6 -93 -20 -149 -185 -725 -39 -135 -173 -609 -297 -1055 -455 -1627
-449 -1607 -541 -1826 -180 -427 -434 -797 -644 -937 -120 -80 -253 -107 -407
-82 -160 25 -374 121 -453 203 -138 142 -284 451 -360 759 -59 243 -65 304
-61 633 7 546 8 522 -11 541 -16 16 -24 16 -85 5 -224 -41 -678 -233 -878
-372 -144 -99 -150 -117 -150 -459 1 -268 6 -306 70 -529 67 -234 174 -468
300 -656 202 -303 442 -482 749 -560 592 -150 1427 103 2420 736 143 91 199
133 271 205 175 174 331 411 414 628 15 39 90 284 166 543 l140 473 478 0
c333 0 477 -3 477 -11 0 -6 -24 -101 -54 -212 -30 -111 -134 -499 -231 -862
-97 -363 -185 -689 -196 -725 -100 -326 -97 -617 7 -685 23 -15 48 -17 168
-16 470 5 904 113 1186 296 102 66 130 96 130 142 0 34 -7 45 -64 101 -135
134 -184 301 -137 472 10 36 167 641 350 1345 183 704 359 1370 391 1480 134
452 274 832 400 1080 105 209 157 283 286 413 l113 113 -573 -3 -573 -3 -85
-42 c-151 -75 -291 -231 -399 -445 -67 -134 -93 -205 -144 -403 -24 -93 -134
-496 -243 -895 l-199 -725 -477 -3 c-435 -2 -476 -1 -476 14 0 9 145 537 321
1173 177 636 322 1174 322 1196 0 59 -25 99 -75 120 -39 17 -93 18 -638 20
-327 1 -633 1 -680 -1z"/>
<path d="M0 2880 l0 -2670 605 0 605 0 2 1185 3 1185 271 -412 c149 -227 499
-761 779 -1185 l508 -773 699 0 c384 0 698 2 698 4 0 2 -355 537 -788 1188
-994 1493 -976 1464 -966 1480 5 7 117 159 249 338 133 179 434 588 670 910
236 322 565 770 732 997 167 226 303 414 303 417 0 3 -303 6 -672 6 l-673 0
-822 -1143 c-452 -628 -859 -1195 -905 -1259 l-83 -116 -3 1259 -2 1259 -605
0 -605 0 0 -2670z"/>
<path d="M13600 4685 l0 -535 -230 0 -230 0 0 -490 0 -490 229 0 229 0 5 -848
c4 -901 5 -923 56 -1136 43 -180 129 -380 226 -526 76 -114 213 -246 339 -329
257 -167 551 -246 956 -258 224 -7 211 -19 107 103 -94 111 -192 266 -282 449
-168 342 -254 635 -274 945 -16 251 -24 811 -16 1214 l8 376 327 0 c180 0 368
3 418 6 l92 7 0 488 0 489 -420 0 -420 0 -2 223 c0 122 0 363 2 535 l3 312
-562 0 -561 0 0 -535z"/>
<path d="M7885 4253 c-177 -8 -658 -62 -787 -89 l-28 -6 0 -534 c0 -294 3
-534 6 -534 3 0 81 16 173 35 574 118 990 111 1279 -20 82 -37 164 -122 211
-218 38 -79 89 -253 77 -264 -3 -3 -110 9 -238 28 -209 30 -255 33 -448 33
-192 0 -230 -3 -351 -27 -612 -120 -1003 -491 -1094 -1036 -23 -138 -16 -398
14 -517 63 -254 174 -451 339 -606 176 -166 377 -267 642 -324 130 -28 428
-26 570 5 184 39 368 110 509 196 32 19 60 35 63 35 2 0 2 -45 0 -100 l-4
-100 555 0 555 0 -3 1297 c-2 909 -6 1328 -14 1398 -46 393 -175 697 -386 910
-97 99 -172 151 -319 221 -353 169 -790 240 -1321 217z m770 -2406 l130 -22 6
-75 c11 -128 10 -424 -2 -557 -6 -71 -13 -130 -15 -132 -8 -9 -247 -71 -328
-86 -115 -20 -284 -20 -361 0 -236 62 -375 222 -375 433 1 256 173 418 495
466 68 10 326 -5 450 -27z"/>
<path d="M4673 4133 l-213 -3 0 -1960 0 -1960 575 0 574 0 3 983 c4 968 4 983
25 1058 46 164 113 277 243 413 167 174 391 294 648 345 l87 18 3 557 c1 342
-1 556 -7 556 -5 0 -61 -13 -124 -30 -275 -70 -532 -228 -698 -426 -81 -98
-97 -121 -148 -214 l-41 -75 0 373 0 372 -357 -2 c-197 -2 -454 -4 -570 -5z"/>
<path d="M30385 4103 c-16 -2 -85 -15 -152 -28 -370 -76 -769 -258 -1097 -502
-54 -41 -100 -72 -101 -71 -2 2 10 55 27 118 24 90 31 138 32 220 1 113 -11
153 -56 184 -111 78 -940 -164 -1263 -368 -27 -18 -65 -38 -84 -46 -38 -15
-71 -62 -71 -101 0 -14 18 -51 41 -82 108 -151 120 -250 55 -463 -344 -1148
-531 -1759 -586 -1924 -111 -332 -134 -447 -129 -636 4 -111 6 -124 37 -186
39 -79 82 -115 154 -128 140 -27 465 64 798 222 171 81 186 89 237 127 78 59
83 76 76 270 -9 275 17 404 218 1056 66 215 154 507 196 650 81 280 122 382
203 499 137 198 423 398 605 423 60 8 130 -19 150 -57 36 -70 23 -198 -41
-403 -58 -183 -163 -558 -324 -1147 -83 -305 -182 -649 -221 -765 -97 -290
-119 -384 -126 -536 -5 -104 -3 -135 12 -178 32 -97 108 -153 227 -167 128
-15 433 57 766 182 329 123 500 212 585 302 36 37 34 75 -3 80 -14 2 -30 8
-36 13 -6 5 -30 15 -53 23 -126 45 -178 156 -152 327 21 132 105 447 379 1424
149 528 280 996 291 1040 64 242 40 417 -70 520 -57 54 -113 80 -207 100 -61
13 -241 18 -317 8z"/>
<path d="M26860 4020 c-359 -64 -824 -233 -1057 -384 -107 -69 -117 -113 -49
-215 105 -158 98 -221 -85 -828 -129 -428 -328 -1046 -503 -1558 -103 -305
-129 -417 -130 -580 -1 -193 39 -276 161 -336 66 -33 72 -34 183 -33 132 1
253 26 466 95 211 68 347 124 564 232 209 104 296 165 288 203 -4 20 -13 25
-95 54 -125 44 -182 121 -191 255 -6 101 11 190 79 409 162 525 631 2135 659
2261 18 83 35 191 37 240 4 79 2 95 -19 135 -13 25 -34 51 -48 57 -35 18 -136
15 -260 -7z"/>
<path d="M24740 4023 c-400 -38 -751 -133 -1053 -284 -542 -272 -967 -730
-1252 -1350 -113 -246 -222 -623 -266 -919 -25 -169 -30 -447 -10 -575 55
-358 215 -592 496 -726 181 -87 377 -125 585 -115 281 14 451 42 641 106 180
60 323 138 509 280 255 194 487 488 454 574 -11 28 -54 17 -218 -55 -324 -143
-411 -165 -626 -156 -77 3 -161 13 -195 22 -184 51 -317 182 -377 375 -20 67
-23 94 -23 250 1 195 17 292 77 476 l33 99 173 48 c577 158 1023 365 1333 615
234 189 392 425 435 650 60 314 -104 599 -391 678 -46 13 -227 17 -325 7z
m-388 -455 c55 -16 70 -44 69 -123 -1 -80 -28 -190 -88 -355 -45 -125 -161
-395 -214 -501 l-28 -57 -113 -35 c-182 -58 -259 -77 -330 -83 l-67 -7 68 184
c202 546 359 831 516 939 72 49 119 59 187 38z"/>
<path d="M32001 4014 c-77 -21 -161 -75 -251 -163 -70 -68 -84 -89 -138 -201
-115 -238 -302 -783 -282 -821 17 -31 61 -23 129 22 33 22 61 44 61 48 0 17
107 125 137 137 45 19 1172 21 1191 2 58 -58 -106 -288 -633 -888 -100 -113
-286 -324 -414 -470 -556 -631 -885 -1040 -1043 -1302 -58 -94 -47 -139 39
-158 21 -5 709 -10 1529 -11 1466 -1 1492 -1 1535 19 58 26 116 89 235 252 54
74 132 182 174 240 352 484 623 974 702 1268 28 109 29 249 1 319 -62 154
-212 265 -415 307 -189 39 -379 3 -471 -89 -81 -81 -157 -262 -157 -375 l0
-57 58 13 c76 18 206 18 268 -1 162 -48 270 -225 249 -408 -9 -81 -22 -109
-100 -222 -98 -141 -156 -199 -233 -237 l-67 -33 -914 -3 c-843 -2 -915 -1
-932 14 -33 29 -22 61 49 158 165 220 1474 2011 1674 2289 137 191 169 257
148 311 -22 58 12 56 -1077 55 -839 0 -1007 -3 -1052 -15z"/>
</g>
</svg>
